<svg width="310.17503662109374px" height="120.8px" xmlns="http://www.w3.org/2000/svg" viewBox="94.91248168945313 14.600000000000001 310.17503662109374 120.8" style="background: rgba(0, 0, 0, 0);" preserveAspectRatio="xMidYMid"><defs><filter id="editing-offset"><feFlood flood-color="#f00" flood-opacity="0.5" result="c1"></feFlood><feFlood flood-color="#0f0" flood-opacity="0.5" result="c2"></feFlood><feFlood flood-color="#00f" flood-opacity="0.5" result="c3"></feFlood><feComposite operator="in" in="c1" in2="SourceAlpha" result="text-c1"></feComposite><feComposite operator="in" in="c2" in2="SourceAlpha" result="text-c2"></feComposite><feComposite operator="in" in="c3" in2="SourceAlpha" result="text-c3"></feComposite><feOffset in="text-c1" dx="-10" dy="0" result="text1"></feOffset><feOffset in="text-c2" dx="10" dy="0" result="text2"></feOffset><feOffset in="text-c3" dx="0" dy="0" result="text3"></feOffset><feMerge><feMergeNode in="text1"></feMergeNode><feMergeNode in="text2"></feMergeNode><feMergeNode in="text3"></feMergeNode></feMerge></filter></defs><g filter="url(#editing-offset)"><g transform="translate(145.00503233075142, 104.79000091552734)"><path d="M26.11-42.69L26.11-42.69L26.11-42.69Q41.79-42.69 41.79-31.62L41.79-31.62L41.79-31.62Q41.79-25.54 37.89-21.89L37.89-21.89L37.89-21.89Q34.05-18.24 27.33-18.24L27.33-18.24L27.33-18.24Q24.19-18.24 21.76-20.03L21.76-20.03L21.76-20.03Q20.61-20.80 19.84-21.82L19.84-21.82L19.84-21.82Q24.51-21.82 26.98-24.67L26.98-24.67L26.98-24.67Q29.44-27.52 29.44-33.09L29.44-33.09L29.44-33.09Q29.44-38.66 23.94-38.66L23.94-38.66L22.40-38.66L22.40-38.66Q22.02-38.66 21.70-38.59L21.70-38.59L14.34 0L0.45 0L8.32-41.92L8.32-41.92Q15.17-42.56 19.14-42.62L19.14-42.62L19.14-42.62Q23.10-42.69 26.11-42.69ZM57.47-3.52L57.47-3.52L57.47-3.52Q55.49 1.28 49.15 1.28L49.15 1.28L49.15 1.28Q45.89 1.28 43.84-0.96L43.84-0.96L43.84-0.96Q42.11-2.94 42.11-4.93L42.11-4.93L42.11-4.93Q42.11-10.11 44.48-20.22L44.48-20.22L46.85-32.64L59.84-33.92L55.94-13.70L55.94-13.70Q54.85-8.96 54.85-7.30L54.85-7.30L54.85-7.30Q54.85-3.65 57.47-3.52ZM48-41.54L48-41.54L48-41.54Q48-44.03 50.08-45.38L50.08-45.38L50.08-45.38Q52.16-46.72 55.17-46.72L55.17-46.72L55.17-46.72Q58.18-46.72 60-45.38L60-45.38L60-45.38Q61.82-44.03 61.82-41.54L61.82-41.54L61.82-41.54Q61.82-39.04 59.81-37.76L59.81-37.76L59.81-37.76Q57.79-36.48 54.78-36.48L54.78-36.48L54.78-36.48Q51.78-36.48 49.89-37.76L49.89-37.76L49.89-37.76Q48-39.04 48-41.54ZM83.26-7.23L83.26-7.23L83.26-7.23Q79.94-3.78 73.86-3.78L73.86-3.78L73.86-3.78Q66.24-3.78 64.64-9.34L64.64-9.34L64.64-9.34Q64.13-11.01 64.13-12.86L64.13-12.86L64.13-12.86Q64.13-14.72 64.51-16.64L64.51-16.64L67.52-32.64L80.51-33.92L76.99-15.30L76.99-15.30Q76.86-14.46 76.67-13.57L76.67-13.57L76.67-13.57Q76.48-12.67 76.48-11.74L76.48-11.74L76.48-11.74Q76.48-10.82 76.80-10.21L76.80-10.21L76.80-10.21Q77.12-9.60 77.57-9.22L77.57-9.22L77.57-9.22Q78.34-8.70 79.71-8.70L79.71-8.70L79.71-8.70Q81.09-8.70 82.27-10.37L82.27-10.37L82.27-10.37Q83.46-12.03 84.03-14.91L84.03-14.91L87.55-32.64L100.16-33.92L95.36-8.77L95.36-8.77Q92.99 3.52 88.13 8.38L88.13 8.38L88.13 8.38Q85.63 10.88 82.40 11.87L82.40 11.87L82.40 11.87Q79.17 12.86 75.01 12.86L75.01 12.86L75.01 12.86Q68.29 12.86 64.45 10.75L64.45 10.75L64.45 10.75Q60.61 8.64 60.61 5.12L60.61 5.12L60.61 5.12Q60.61 2.50 62.59 0.99L62.59 0.99L62.59 0.99Q64.58-0.51 67.65-0.51L67.65-0.51L67.65-0.51Q70.34-0.51 72.38 0.64L72.38 0.64L72.38 0.64Q73.60 1.34 74.18 2.24L74.18 2.24L74.18 2.24Q72.70 3.52 72.70 5.63L72.70 5.63L72.70 5.63Q72.70 8.45 75.26 8.45L75.26 8.45L75.26 8.45Q79.49 8.45 81.92-1.28L81.92-1.28L81.92-1.28Q82.62-4.16 83.26-7.23ZM123.01-2.69L123.01-2.69L123.01-2.69Q119.94 1.28 112.32 1.28L112.32 1.28L112.32 1.28Q108.35 1.28 105.47-1.12L105.47-1.12L105.47-1.12Q102.59-3.52 102.59-6.98L102.59-6.98L102.59-6.98Q102.59-8.90 102.78-9.86L102.78-9.86L107.07-32.64L120.06-33.92L115.39-9.22L115.39-9.22Q115.14-7.81 115.14-6.98L115.14-6.98L115.14-6.98Q115.14-3.26 117.38-3.26L117.38-3.26L117.38-3.26Q119.87-3.26 121.66-6.66L121.66-6.66L121.66-6.66Q122.24-7.74 122.50-9.15L122.50-9.15L127.04-32.64L139.65-33.92L134.91-8.96L134.91-8.96Q134.72-8 134.72-6.98L134.72-6.98L134.72-6.98Q134.72-5.95 135.30-4.83L135.30-4.83L135.30-4.83Q135.87-3.71 137.73-3.46L137.73-3.46L137.73-3.46Q137.34-1.92 136-0.90L136-0.90L136-0.90Q133.18 1.28 130.14 1.28L130.14 1.28L130.14 1.28Q127.10 1.28 125.31 0.19L125.31 0.19L125.31 0.19Q123.52-0.90 123.01-2.69ZM162.24-22.46L162.24-22.46L162.24-22.46Q163.14-24.83 163.14-26.88L163.14-26.88L163.14-26.88Q163.14-30.66 160.06-30.66L160.06-30.66L160.06-30.66Q158.46-30.66 157.15-29.22L157.15-29.22L157.15-29.22Q155.84-27.78 155.84-25.98L155.84-25.98L155.84-25.98Q155.84-24.70 156.86-23.68L156.86-23.68L156.86-23.68Q158.34-22.27 162.11-19.97L162.11-19.97L162.11-19.97Q165.89-17.66 167.33-15.78L167.33-15.78L167.33-15.78Q168.77-13.89 168.77-11.30L168.77-11.30L168.77-11.30Q168.77-8.70 167.52-6.34L167.52-6.34L167.52-6.34Q166.27-3.97 164.03-2.30L164.03-2.30L164.03-2.30Q159.23 1.28 151.55 1.28L151.55 1.28L151.55 1.28Q147.39 1.28 144.19-0.90L144.19-0.90L144.19-0.90Q140.99-3.01 140.99-5.50L140.99-5.50L140.99-5.50Q140.99-8 142.82-9.47L142.82-9.47L142.82-9.47Q144.64-10.94 147.33-10.94L147.33-10.94L147.33-10.94Q150.02-10.94 151.68-9.92L151.68-9.92L151.68-9.92Q150.85-7.81 150.85-6.40L150.85-6.40L150.85-6.40Q150.85-2.18 154.43-2.18L154.43-2.18L154.43-2.18Q155.97-2.18 156.99-3.14L156.99-3.14L156.99-3.14Q158.02-4.10 158.02-5.76L158.02-5.76L158.02-5.76Q158.02-9.02 152.51-12.48L152.51-12.48L152.51-12.48Q148.03-15.42 147.01-16.58L147.01-16.58L147.01-16.58Q145.28-18.62 145.28-21.18L145.28-21.18L145.28-21.18Q145.28-23.74 146.50-26.18L146.50-26.18L146.50-26.18Q147.71-28.61 149.95-30.34L149.95-30.34L149.95-30.34Q154.62-33.92 162.75-33.92L162.75-33.92L162.75-33.92Q166.91-33.92 169.38-32.26L169.38-32.26L169.38-32.26Q171.84-30.59 171.84-27.78L171.84-27.78L171.84-27.78Q171.84-24.96 170.14-23.36L170.14-23.36L170.14-23.36Q168.45-21.76 165.38-21.76L165.38-21.76L165.38-21.76Q163.26-21.76 162.24-22.46ZM206.40-7.10L206.40-7.10L206.40-7.10Q206.40-4.29 209.28-3.46L209.28-3.46L209.28-3.46Q208.58-1.09 205.82 0.19L205.82 0.19L205.82 0.19Q203.52 1.28 200.99 1.28L200.99 1.28L200.99 1.28Q198.46 1.28 197.15 0.61L197.15 0.61L197.15 0.61Q195.84-0.06 195.14-1.15L195.14-1.15L195.14-1.15Q193.98-2.82 193.98-5.95L193.98-5.95L193.98-5.95Q193.98-7.81 195.01-12.93L195.01-12.93L195.90-17.79L195.90-17.79Q196.99-23.36 196.99-25.41L196.99-25.41L196.99-25.41Q196.99-28.99 195.01-28.99L195.01-28.99L195.01-28.99Q192.51-28.99 190.91-25.34L190.91-25.34L190.91-25.34Q190.27-23.94 189.82-21.82L189.82-21.82L185.47 0L172.61 1.28L181.63-44.80L194.50-46.08L193.98-43.52L193.98-43.52Q192.19-33.66 190.66-30.34L190.66-30.34L190.66-30.34Q194.24-33.92 200.83-33.92L200.83-33.92L200.83-33.92Q207.81-33.92 209.09-29.31L209.09-29.31L209.09-29.31Q209.54-27.84 209.54-26.56L209.54-26.56L209.54-26.56Q209.54-25.28 209.44-24.29L209.44-24.29L209.44-24.29Q209.34-23.30 209.02-21.50L209.02-21.50L208.19-16.90L206.72-9.66L206.72-9.66Q206.40-8.19 206.40-7.10Z"></path></g></g><style>text {
  font-size: 64px;
  font-family: Arial Black;
  dominant-baseline: central;
  text-anchor: middle;
}</style></svg>